<svg width="22" height="22" viewBox="0 0 22 22" fill="none" xmlns="http://www.w3.org/2000/svg">
<path d="M11 0.714355C16.6806 0.714355 21.2857 5.31943 21.2857 11.0001C21.2857 16.6807 16.6806 21.2858 11 21.2858C5.31936 21.2858 0.714286 16.6807 0.714286 11.0001C0.714286 5.31943 5.31936 0.714355 11 0.714355ZM11 2.42864C6.26613 2.42864 2.42857 6.2662 2.42857 11.0001C2.42857 15.7339 6.26613 19.5715 11 19.5715C15.7339 19.5715 19.5714 15.7339 19.5714 11.0001C19.5714 6.2662 15.7339 2.42864 11 2.42864ZM11 5.85721C11.4734 5.85721 11.8571 6.24097 11.8571 6.71436V10.1429H15.2857C15.7591 10.1429 16.1429 10.5267 16.1429 11.0001C16.1429 11.4735 15.7591 11.8572 15.2857 11.8572H11.8571V15.2858C11.8571 15.7592 11.4734 16.1429 11 16.1429C10.5266 16.1429 10.1429 15.7592 10.1429 15.2858V11.8572H6.71429C6.2409 11.8572 5.85714 11.4735 5.85714 11.0001C5.85714 10.5267 6.2409 10.1429 6.71429 10.1429H10.1429V6.71436C10.1429 6.24097 10.5266 5.85721 11 5.85721Z" fill="#5159F6"/>
</svg>
