<svg width="20" height="20" viewBox="0 0 20 20" fill="none" xmlns="http://www.w3.org/2000/svg">
<path fill-rule="evenodd" clip-rule="evenodd" d="M10 1.65138C5.38918 1.65138 1.65138 5.38918 1.65138 10C1.65138 14.6108 5.38918 18.3486 10 18.3486C14.6108 18.3486 18.3486 14.6108 18.3486 10C18.3486 5.38918 14.6108 1.65138 10 1.65138ZM0 10C0 4.47715 4.47715 0 10 0C15.5228 0 20 4.47715 20 10C20 15.5228 15.5228 20 10 20C4.47715 20 0 15.5228 0 10ZM5.9633 7.24771C5.9633 6.53835 6.53835 5.9633 7.24771 5.9633C7.95706 5.9633 8.53211 6.53835 8.53211 7.24771C8.53211 7.95706 7.95706 8.53211 7.24771 8.53211C6.53835 8.53211 5.9633 7.95706 5.9633 7.24771ZM11.4679 7.24771C11.4679 6.53835 12.0429 5.9633 12.7523 5.9633C13.4617 5.9633 14.0367 6.53835 14.0367 7.24771C14.0367 7.95706 13.4617 8.53211 12.7523 8.53211C12.0429 8.53211 11.4679 7.95706 11.4679 7.24771Z" fill="#5159F6"/>
<path fill-rule="evenodd" clip-rule="evenodd" d="M5.85556 11.5445C6.26498 11.3069 6.78952 11.4461 7.02717 11.8556C7.3294 12.3763 7.76309 12.8084 8.28484 13.1089C8.80658 13.4093 9.39808 13.5674 10.0001 13.5674C10.6022 13.5674 11.1937 13.4093 11.7154 13.1089C12.2372 12.8084 12.6709 12.3763 12.9731 11.8556C13.2108 11.4461 13.7353 11.3069 14.1447 11.5445C14.5541 11.7822 14.6934 12.3067 14.4557 12.7161C14.0028 13.4965 13.3528 14.1442 12.5709 14.5945C11.7889 15.0447 10.9024 15.2817 10.0001 15.2817C9.09783 15.2817 8.21135 15.0447 7.42941 14.5945C6.64747 14.1442 5.9975 13.4965 5.54454 12.7161C5.3069 12.3067 5.44615 11.7822 5.85556 11.5445Z" fill="#5159F6"/>
</svg>
